<?xml version="1.0" encoding="utf-8"?>
<!-- Generator: Adobe Illustrator 16.0.0, SVG Export Plug-In . SVG Version: 6.00 Build 0)  -->
<!DOCTYPE svg PUBLIC "-//W3C//DTD SVG 1.1//EN" "http://www.w3.org/Graphics/SVG/1.1/DTD/svg11.dtd">
<svg version="1.1" id="Layer_1" xmlns="http://www.w3.org/2000/svg" xmlns:xlink="http://www.w3.org/1999/xlink" x="0px" y="0px"
	 width="131.375px" height="42.604px" viewBox="0 0 131.375 42.604" enable-background="new 0 0 131.375 42.604"
	 xml:space="preserve">
<path d="M121.725,19.443c0.016,1.912,1.549,3.462,3.461,3.462c1.914,0,3.463-1.549,3.463-3.462V9.877
	c0-1.913-1.549-3.463-3.463-3.463c-1.912,0-3.461,1.55-3.461,3.463l0.016,5.645c0,0-0.436,1.881-2.495,1.961
	c-2.062,0.079-7.646-2.813-9.688-8.158c-0.73-1.786-1.748-2.495-3.326-2.495c-1.562,0-2.883,0.995-3.313,2.456
	c-1.935,6.374-6.489,8.345-7.916,8.444c-1.11,0.109-1.862,0.833-1.862,1.812c0,0.98,0.752,1.624,1.902,1.624
	c2.495,0,7.487-1.544,11.25-5.585C110.292,19.503,118.521,23.068,121.725,19.443"/>
<path d="M56.675,16.084c-1,0-1.81-0.81-1.81-1.81l0.011-4.872c0-1.912,1.55-3.463,3.463-3.463c1.912,0,3.424,1.551,3.424,3.463v3.09
	h19.838c2.229,0,2.908-0.488,3.615-0.713c0.989-0.317,2.092-0.103,2.512,0.84c0.42,0.943-0.072,1.885-0.875,2.404
	c-0.805,0.519-2.607,1.034-5.252,1.034h-7.575v1.902l13.726,0.032c1,0,1.81,0.81,1.81,1.81c0,0.999-0.81,1.809-1.81,1.809H54.298
	c-0.999,0-1.809-0.81-1.809-1.809c0-1,0.81-1.81,1.809-1.81l12.954-0.032v-1.902L56.675,16.084z"/>
<path d="M54.154,29.367c0-3.925,7.487-7.108,16.723-7.108c9.234,0,16.722,3.184,16.722,7.108s-7.487,7.106-16.722,7.106
	C61.642,36.474,54.154,33.292,54.154,29.367 M70.877,33.064c5.383,0,9.748-1.655,9.748-3.697s-4.365-3.698-9.748-3.698
	c-5.384,0-9.749,1.656-9.749,3.698S65.493,33.064,70.877,33.064"/>
<path d="M96.46,24.911c0-1,0.81-1.81,1.81-1.81h28.641c0.999,0,1.809,0.81,1.809,1.81v8.021c0,0.999-0.81,1.809-1.809,1.809H98.27
	c-1,0-1.81-0.81-1.81-1.809V24.911z M103.32,31.149h18.42v-4.516h-18.42V31.149z"/>
<path fill="#FFFFFF" d="M25.003,41.816c13.35,0,24.171-9.228,24.171-20.609c0-11.383-10.821-20.61-24.171-20.61
	c-13.349,0-24.171,9.227-24.171,20.61C0.832,32.589,11.654,41.816,25.003,41.816"/>
<path fill="#ED1C24" d="M2.563,21.207c0-10.568,10.047-19.134,22.44-19.134c12.394,0,22.44,8.566,22.44,19.134
	c0,10.565-10.046,19.133-22.44,19.133C12.61,40.34,2.563,31.772,2.563,21.207 M25.003,24.45c3.937,0,7.128-4.593,7.128-10.259
	c0-5.665-3.191-10.259-7.128-10.259s-7.127,4.594-7.127,10.259C17.876,19.857,21.066,24.45,25.003,24.45"/>
</svg>
